<?xml version="1.0" standalone="no"?>
<!DOCTYPE svg PUBLIC "-//W3C//DTD SVG 20010904//EN"
 "http://www.w3.org/TR/2001/REC-SVG-20010904/DTD/svg10.dtd">
<svg version="1.0" xmlns="http://www.w3.org/2000/svg"
 width="682.000000pt" height="682.000000pt" viewBox="0 0 682.000000 682.000000"
 preserveAspectRatio="xMidYMid meet">

<g transform="translate(0.000000,682.000000) scale(0.100000,-0.100000)"
fill="#000000" stroke="none">
<path d="M6240 6285 c-29 -17 -44 -19 -35 -5 3 6 -1 7 -10 3 -13 -4 -14 -8 -4
-13 11 -7 -49 -45 -113 -72 -20 -8 -25 7 -5 16 6 3 3 4 -8 3 -11 -2 -19 -9
-17 -15 1 -7 -5 -12 -13 -12 -8 0 -15 4 -15 9 0 17 -39 23 -72 11 -27 -10 -38
-9 -61 3 -27 14 -26 14 28 13 31 0 59 4 63 10 4 6 16 14 27 19 20 8 20 9 -1
12 -40 7 -460 -70 -526 -96 -13 -5 -60 -20 -105 -32 -46 -13 -83 -26 -83 -31
0 -4 -9 -8 -20 -8 -10 0 -34 -6 -52 -14 -18 -8 -53 -20 -78 -26 l-44 -12 24
-15 c15 -9 17 -11 5 -7 -34 13 -67 7 -129 -21 -46 -20 -56 -29 -45 -36 10 -7
6 -8 -14 -3 -15 3 -33 2 -40 -4 -6 -5 -64 -37 -127 -69 -137 -71 -212 -118
-203 -127 3 -3 -3 -6 -15 -6 -41 0 -36 -27 8 -49 23 -12 23 -11 -4 13 -25 22
-26 26 -10 26 28 0 69 25 66 40 -2 8 3 10 13 7 8 -4 25 -2 37 4 21 8 20 9 -5
4 -17 -4 -26 -2 -23 4 3 5 25 12 49 16 23 4 44 11 47 14 3 4 16 5 30 1 24 -6
24 -6 -12 -28 -19 -12 -41 -22 -48 -22 -9 0 -8 -7 4 -24 14 -23 14 -25 -2 -29
-9 -3 11 -5 46 -5 48 1 62 4 62 16 0 11 -8 13 -35 9 -44 -7 -46 8 -6 52 32 35
36 36 134 25 76 -8 86 2 40 42 l-27 23 24 10 c24 9 24 10 -7 10 -17 1 -35 6
-38 12 -5 7 5 8 30 3 25 -4 36 -3 32 3 -4 6 4 9 18 7 14 -1 23 2 19 7 -3 5
-10 6 -16 3 -7 -4 -8 -2 -4 5 5 7 21 9 44 6 29 -5 34 -4 22 5 -12 10 -11 11 7
7 14 -3 21 0 20 7 -1 6 16 12 43 14 l45 3 -24 -17 c-14 -10 -47 -23 -75 -30
-31 -7 -41 -13 -26 -13 20 -1 22 -3 10 -11 -8 -5 -25 -7 -38 -3 -21 5 -23 3
-18 -23 2 -16 5 -32 5 -36 1 -5 15 -8 32 -8 18 0 28 4 24 10 -9 14 31 27 66
22 18 -3 29 -10 30 -21 0 -9 3 -11 5 -4 3 6 1 28 -4 47 l-10 35 41 7 c27 4 42
3 45 -5 2 -6 19 -11 38 -11 30 0 34 3 34 25 0 32 20 32 54 0 18 -17 26 -20 26
-10 0 11 12 15 45 15 41 0 45 -2 45 -24 0 -13 7 -27 16 -30 8 -3 12 -2 9 4 -7
12 20 42 29 33 3 -4 6 -1 6 6 0 8 12 12 33 10 18 -2 39 1 46 6 8 4 28 12 45
16 28 6 26 7 -16 8 -26 1 -50 6 -54 13 -5 8 2 9 25 5 18 -4 41 -2 52 3 12 7
19 7 19 1 0 -6 17 -8 39 -5 22 2 42 0 46 -6 4 -6 -1 -7 -11 -3 -12 4 -15 3
-10 -5 5 -8 -2 -10 -24 -6 -17 4 -30 2 -30 -4 0 -5 -10 -13 -22 -17 l-23 -7
25 -8 c25 -8 25 -8 2 -9 -13 -1 -20 -5 -17 -11 3 -5 2 -10 -4 -10 -5 0 -11 5
-13 12 -3 8 -11 8 -33 -1 l-30 -11 30 5 c17 2 24 2 17 -1 -6 -3 -9 -10 -6 -15
3 -6 -5 -7 -23 -3 -24 6 -26 5 -16 -7 10 -12 7 -15 -15 -14 -16 0 -26 -5 -24
-12 1 -7 -7 -13 -17 -13 -11 0 -23 -5 -26 -11 -4 -6 -14 -8 -22 -5 -8 4 -11 2
-7 -5 4 -8 -1 -9 -17 -4 -22 7 -22 7 -6 -9 16 -16 19 -16 43 3 15 12 32 21 38
21 6 0 -13 -16 -41 -35 -29 -19 -58 -32 -66 -29 -8 3 -18 1 -22 -5 -4 -7 1 -8
12 -4 21 7 12 -5 -16 -21 -10 -6 -65 -43 -122 -83 -57 -39 -107 -71 -110 -70
-3 1 -14 -6 -24 -16 -30 -31 -121 -97 -133 -97 -5 0 -12 -4 -14 -8 -1 -4 -39
-35 -83 -67 -44 -32 -111 -85 -149 -116 -38 -32 -73 -56 -79 -52 -6 3 -7 2 -4
-4 3 -5 -2 -16 -11 -24 -9 -8 -48 -40 -87 -73 -201 -168 -405 -379 -584 -601
-40 -49 -79 -98 -86 -107 -8 -9 -54 -77 -103 -150 -80 -119 -125 -194 -204
-338 -41 -76 -97 -213 -151 -373 l-51 -152 -1 -520 c0 -479 2 -535 23 -715 41
-349 96 -655 167 -932 56 -216 226 -678 250 -678 20 0 126 74 169 118 l38 40
-30 104 c-64 214 -118 470 -153 723 -30 216 -38 682 -15 889 59 542 257 1062
545 1436 90 117 346 371 461 457 199 149 468 298 690 383 47 17 107 40 134 51
27 10 52 19 57 19 11 0 100 40 214 96 321 156 573 489 665 879 40 167 46 482
10 505 -25 16 -341 12 -370 -5z m-300 -45 c0 -5 -5 -10 -11 -10 -5 0 -7 5 -4
10 3 6 8 10 11 10 2 0 4 -4 4 -10z m-196 -43 c23 4 36 2 36 -5 0 -6 8 -9 18
-6 15 5 15 4 -1 -6 -13 -9 -22 -9 -32 0 -7 6 -24 8 -37 5 -14 -4 -31 0 -43 10
-20 16 -20 16 1 6 12 -6 38 -8 58 -4z m131 -7 c3 -5 -1 -10 -10 -10 -9 0 -13
5 -10 10 3 6 8 10 10 10 2 0 7 -4 10 -10z m92 -26 c-3 -3 -12 -4 -19 -1 -8 3
-5 6 6 6 11 1 17 -2 13 -5z m-352 -14 c4 -6 -6 -10 -22 -10 -22 0 -25 2 -13
10 19 12 27 12 35 0z m80 0 c-3 -5 -10 -10 -16 -10 -5 0 -9 5 -9 10 0 6 7 10
16 10 8 0 12 -4 9 -10z m218 3 c-7 -3 -13 -13 -13 -24 0 -13 -7 -19 -24 -19
-14 0 -28 4 -31 10 -4 6 1 7 11 3 13 -5 16 -2 12 13 -4 16 1 19 26 20 17 1 25
-1 19 -3z m-256 -9 c-3 -3 -12 -4 -19 -1 -8 3 -5 6 6 6 11 1 17 -2 13 -5z
m-169 -17 c11 2 23 0 26 -6 11 -17 26 -13 20 4 -5 11 -2 13 11 9 14 -6 14 -9
3 -20 -16 -16 -101 -5 -121 16 -9 9 -6 9 14 1 15 -5 36 -7 47 -4z m-93 -7 c8
-13 -5 -13 -25 0 -13 8 -13 10 2 10 9 0 20 -4 23 -10z m3 -13 c13 1 22 -5 22
-14 0 -10 -11 -13 -45 -12 -25 2 -51 7 -57 12 -9 6 -8 7 4 3 20 -6 34 10 16
18 -7 3 -2 3 12 -1 14 -4 35 -7 48 -6z m429 -14 c-9 -2 -14 -9 -11 -15 4 -6
-1 -8 -11 -6 -32 6 -26 23 8 24 17 1 24 -1 14 -3z m-517 -34 c12 -7 10 -8 -7
-9 -13 0 -23 -6 -23 -14 0 -8 -4 -18 -10 -21 -5 -3 -7 0 -4 8 7 18 -26 31 -40
17 -8 -8 -5 -9 9 -4 16 6 18 4 8 -6 -10 -11 -15 -11 -27 -1 -8 7 -24 10 -35 6
-11 -3 -28 -2 -37 3 -11 6 -2 9 30 7 25 0 46 3 46 7 0 4 -6 8 -12 8 -9 0 -8 4
2 10 16 10 74 4 100 -11z m480 2 c0 -13 -26 -21 -63 -20 l-32 1 35 13 c42 16
60 18 60 6z m35 -11 c-3 -5 -12 -10 -18 -10 -7 0 -6 4 3 10 19 12 23 12 15 0z
m-630 -30 c4 -6 -6 -10 -22 -9 -25 0 -26 1 -8 9 11 5 21 9 22 9 1 1 5 -3 8 -9z
m308 -2 c15 1 16 -1 2 -14 -15 -16 -57 -16 -55 0 1 5 -4 13 -12 18 -8 6 -3 7
17 2 17 -4 38 -6 48 -6z m-446 -14 c-3 -3 -12 -4 -19 -1 -8 3 -5 6 6 6 11 1
17 -2 13 -5z m-177 -78 c0 -11 -19 -15 -25 -6 -3 5 1 10 9 10 9 0 16 -2 16 -4z
m30 -27 c0 -6 -5 -7 -12 -3 -8 5 -9 2 -5 -9 7 -19 -1 -21 -23 -7 -13 9 -12 12
4 25 19 15 36 12 36 -6z m-66 2 c4 -5 -3 -7 -14 -4 -23 6 -26 13 -6 13 8 0 17
-4 20 -9z m11 -31 c13 -6 15 -9 5 -9 -8 0 -22 4 -30 9 -18 12 -2 12 25 0z"/>
<path d="M182 6283 c-7 -3 -20 -19 -30 -36 -14 -26 -17 -57 -16 -167 1 -154
20 -278 65 -425 47 -154 164 -386 184 -367 5 4 5 1 1 -5 -8 -15 23 -62 42 -63
7 0 11 -4 7 -9 -16 -26 222 -251 265 -251 6 0 8 -4 5 -10 -3 -5 0 -10 9 -10 8
0 16 -5 18 -11 2 -6 17 -11 32 -11 17 0 23 -3 16 -8 -18 -11 20 -30 59 -30 16
0 33 -5 37 -11 4 -8 -1 -9 -17 -5 -20 6 -21 5 -7 -4 10 -6 30 -7 45 -4 25 7
25 8 8 15 -16 6 -14 8 11 8 24 1 31 -3 30 -16 0 -10 6 -19 15 -21 19 -3 21 27
4 41 -6 5 2 6 16 3 19 -4 29 -1 33 10 7 17 -2 17 -74 -2 -19 -5 -22 -4 -14 5
9 10 182 30 267 31 10 0 17 8 17 19 0 15 -8 21 -37 24 -28 3 -23 4 20 5 51 2
57 4 57 23 0 12 -8 23 -20 26 -11 3 -20 12 -20 19 0 17 57 19 62 3 6 -18 47
11 50 36 2 12 12 21 26 23 17 3 22 10 22 33 0 16 5 29 11 29 6 0 25 11 43 25
18 14 41 25 50 25 9 0 26 9 38 20 l22 20 -25 0 -24 0 25 21 25 20 -75 -7 c-41
-3 -78 -11 -82 -17 -4 -6 -16 -2 -32 11 -24 18 -25 22 -10 36 8 9 24 16 33 16
19 0 43 22 40 36 -4 22 2 33 21 39 11 3 20 15 20 26 0 10 7 19 15 19 9 0 18 7
21 15 3 8 14 17 24 20 10 3 20 19 24 35 5 27 9 30 46 30 22 0 40 -4 40 -10 0
-5 -9 -10 -20 -10 -18 0 -20 -7 -20 -75 0 -65 2 -75 18 -75 9 0 28 16 42 35
14 19 31 35 38 35 6 0 12 7 12 16 0 22 46 64 71 64 14 0 19 7 19 29 0 16 6 31
15 35 9 3 15 19 15 41 l0 35 59 0 c66 0 79 12 59 55 -11 25 -28 34 -28 15 0
-17 -37 -11 -44 7 -9 23 21 45 54 41 14 -2 25 -10 26 -18 2 -30 5 -31 33 -11
16 12 35 21 43 21 10 0 10 2 -2 10 -8 5 -11 12 -8 15 4 4 16 0 28 -8 15 -10
17 -16 8 -19 -7 -3 2 -5 19 -5 l33 0 -35 22 c-20 11 -33 24 -30 27 3 3 -3 8
-14 11 -15 3 -18 1 -14 -12 3 -11 -1 -9 -15 6 -11 12 -38 31 -60 43 -34 18
-47 20 -76 11 -21 -5 -34 -6 -31 0 4 5 8 18 10 30 4 18 0 20 -20 17 -13 -3
-24 -2 -23 1 2 23 -6 31 -33 31 -16 0 -28 4 -24 9 3 5 -12 15 -32 21 -21 7
-42 16 -48 19 -5 4 -44 20 -85 35 -41 16 -89 35 -106 42 -36 16 -96 33 -295
85 -277 72 -555 109 -801 108 -89 0 -169 -3 -176 -6z m1055 -159 c-3 -3 -12
-4 -19 -1 -8 3 -5 6 6 6 11 1 17 -2 13 -5z m468 -164 c-3 -5 -11 -10 -16 -10
-6 0 -7 5 -4 10 3 6 11 10 16 10 6 0 7 -4 4 -10z m201 -108 c-27 -2 -54 2 -59
7 -8 8 -6 11 7 11 9 0 15 4 11 9 -3 6 16 2 42 -7 l48 -17 -49 -3z m54 -27 c-9
-11 -17 -12 -31 -4 -27 14 -24 19 12 19 27 0 30 -2 19 -15z m-163 -43 c-10 -2
-17 -9 -17 -15 0 -7 -9 -18 -20 -25 -18 -11 -20 -10 -20 13 0 16 6 25 15 25 9
0 18 7 21 15 5 13 9 13 22 3 13 -12 13 -13 -1 -16z m193 18 c0 -5 -7 -10 -15
-10 -8 0 -15 5 -15 10 0 6 7 10 15 10 8 0 15 -4 15 -10z m-210 -170 c0 -5 -18
-10 -40 -10 -22 0 -40 5 -40 10 0 6 18 10 40 10 22 0 40 -4 40 -10z m-480
-390 c0 -13 -7 -20 -20 -20 -23 0 -26 10 -8 28 18 18 28 15 28 -8z m-80 -111
c0 -12 -29 -38 -42 -39 -5 0 -8 11 -8 25 0 20 5 25 25 25 14 0 25 -5 25 -11z
m-40 -59 c0 -5 -4 -10 -10 -10 -5 0 -10 5 -10 10 0 6 5 10 10 10 6 0 10 -4 10
-10z m-40 -30 c0 -21 -24 -28 -35 -10 -8 14 3 30 21 30 8 0 14 -9 14 -20z
m-485 -19 c-8 -14 -35 -14 -35 -1 0 5 7 7 15 4 8 -4 15 -1 15 7 0 7 3 10 6 6
3 -3 3 -10 -1 -16z m105 -56 c0 -2 -6 -5 -13 -8 -8 -3 -14 1 -14 8 0 7 6 11
14 8 7 -3 13 -6 13 -8z m83 -72 c-7 -2 -21 -2 -30 0 -10 3 -4 5 12 5 17 0 24
-2 18 -5z m44 1 c-3 -3 -12 -4 -19 -1 -8 3 -5 6 6 6 11 1 17 -2 13 -5z"/>
<path d="M6030 6276 c0 -2 18 -6 39 -8 22 -2 37 0 35 4 -5 8 -74 11 -74 4z"/>
<path d="M6048 6243 c6 -2 18 -2 25 0 6 3 1 5 -13 5 -14 0 -19 -2 -12 -5z"/>
<path d="M1840 5920 c0 -5 5 -10 10 -10 6 0 10 5 10 10 0 6 -4 10 -10 10 -5 0
-10 -4 -10 -10z"/>
<path d="M5418 5813 c7 -3 16 -2 19 1 4 3 -2 6 -13 5 -11 0 -14 -3 -6 -6z"/>
<path d="M4794 5789 c-3 -5 6 -9 20 -9 31 0 34 6 6 13 -11 3 -23 1 -26 -4z"/>
<path d="M5324 5755 c-10 -8 -14 -15 -8 -15 6 0 17 7 24 15 16 19 9 19 -16 0z"/>
<path d="M2109 5732 c9 -17 18 -21 35 -16 13 3 27 1 30 -5 4 -6 14 -11 23 -11
12 0 10 5 -8 21 -14 12 -31 18 -43 15 -11 -3 -27 0 -35 7 -12 10 -13 9 -2 -11z"/>
<path d="M4500 5731 c0 -6 4 -13 10 -16 6 -3 7 1 4 9 -7 18 -14 21 -14 7z"/>
<path d="M4446 5695 c-16 -14 -24 -25 -19 -25 6 0 16 7 23 15 9 11 16 12 26 4
7 -6 19 -9 26 -6 8 4 7 6 -4 6 -9 1 -20 6 -24 13 -5 8 -2 9 10 5 10 -4 15 -3
11 3 -9 15 -17 12 -49 -15z"/>
<path d="M2028 5703 c7 -3 16 -2 19 1 4 3 -2 6 -13 5 -11 0 -14 -3 -6 -6z"/>
<path d="M1968 5693 c7 -3 16 -2 19 1 4 3 -2 6 -13 5 -11 0 -14 -3 -6 -6z"/>
<path d="M4455 5670 c-3 -5 -1 -10 4 -10 6 0 11 5 11 10 0 6 -2 10 -4 10 -3 0
-8 -4 -11 -10z"/>
<path d="M4364 5635 c-18 -15 -18 -15 0 -8 15 5 17 3 11 -8 -8 -12 -6 -12 8 0
9 7 14 17 11 22 -7 12 -7 12 -30 -6z"/>
<path d="M4465 5640 c-3 -5 -1 -10 4 -10 6 0 11 5 11 10 0 6 -2 10 -4 10 -3 0
-8 -4 -11 -10z"/>
<path d="M4285 5568 c-15 -18 -24 -26 -19 -18 4 8 -9 -1 -29 -20 -20 -19 -33
-37 -31 -40 3 -3 16 7 28 21 17 19 27 24 39 18 12 -7 17 -3 22 22 4 18 10 28
14 23 3 -5 14 -15 24 -23 15 -12 17 -12 11 2 -3 8 -13 18 -22 22 -14 5 -14 7
-2 15 9 6 10 10 3 10 -6 0 -24 -15 -38 -32z"/>
<path d="M4140 5439 c0 -5 5 -7 10 -4 6 3 10 8 10 11 0 2 -4 4 -10 4 -5 0 -10
-5 -10 -11z"/>
<path d="M1540 5364 c0 -14 3 -14 15 -4 8 7 15 14 15 16 0 2 -7 4 -15 4 -8 0
-15 -7 -15 -16z"/>
<path d="M1432 5328 c-16 -16 -15 -28 3 -28 8 0 15 9 15 20 0 23 -2 24 -18 8z"/>
<path d="M3971 5258 c-14 -23 -14 -23 8 -4 22 20 25 26 13 26 -4 0 -13 -10
-21 -22z"/>
<path d="M1040 4881 c-17 -5 -21 -9 -12 -15 6 -4 22 0 34 8 24 17 19 18 -22 7z"/>
<path d="M1110 4880 c19 -13 30 -13 30 0 0 6 -10 10 -22 10 -19 0 -20 -2 -8
-10z"/>
<path d="M1060 4851 c0 -5 9 -7 20 -4 11 3 20 7 20 9 0 2 -9 4 -20 4 -11 0
-20 -4 -20 -9z"/>
<path d="M905 4840 c3 -5 10 -10 16 -10 5 0 9 5 9 10 0 6 -7 10 -16 10 -8 0
-12 -4 -9 -10z"/>
<path d="M1058 4823 c7 -3 16 -2 19 1 4 3 -2 6 -13 5 -11 0 -14 -3 -6 -6z"/>
<path d="M1083 4803 c9 -2 23 -2 30 0 6 3 -1 5 -18 5 -16 0 -22 -2 -12 -5z"/>
<path d="M1208 4803 c12 -2 30 -2 40 0 9 3 -1 5 -23 4 -22 0 -30 -2 -17 -4z"/>
<path d="M1138 4793 c6 -2 18 -2 25 0 6 3 1 5 -13 5 -14 0 -19 -2 -12 -5z"/>
<path d="M1333 4773 c9 -2 25 -2 35 0 9 3 1 5 -18 5 -19 0 -27 -2 -17 -5z"/>
<path d="M5635 4707 c-244 -105 -554 -292 -777 -470 -439 -350 -731 -801 -847
-1307 -94 -414 -88 -891 19 -1306 60 -232 173 -561 204 -592 18 -18 25 -8 79
114 179 398 219 719 157 1254 -56 486 3 867 194 1265 34 72 93 175 130 230
227 333 467 557 839 781 90 55 118 75 105 74 -2 0 -48 -20 -103 -43z"/>
<path d="M1758 4703 c7 -3 16 -2 19 1 4 3 -2 6 -13 5 -11 0 -14 -3 -6 -6z"/>
<path d="M1030 4666 c0 -3 48 -33 106 -67 282 -168 569 -453 752 -745 171
-274 269 -565 307 -911 20 -189 19 -281 -6 -513 -50 -462 -16 -769 126 -1145
47 -123 124 -265 144 -265 21 0 131 317 181 523 59 238 72 334 77 592 10 478
-67 846 -261 1240 -225 455 -539 800 -1004 1099 -140 91 -422 219 -422 192z"/>
<path d="M1978 4643 c7 -3 16 -2 19 1 4 3 -2 6 -13 5 -11 0 -14 -3 -6 -6z"/>
<path d="M1416 4571 c397 -207 709 -505 977 -931 268 -425 412 -903 457 -1512
24 -320 -30 -786 -146 -1268 l-35 -145 43 -38 c58 -51 127 -92 138 -81 19 20
121 302 183 509 80 266 133 492 188 805 l41 235 -1 465 c-2 478 -3 500 -47
695 -95 419 -221 613 -562 863 -283 208 -678 359 -1138 437 -222 38 -230 35
-98 -34z"/>
</g>
</svg>
